solid ascii
  facet normal 1.000000e+000 0.000000e+000 -0.000000e+000
    outer loop
      vertex   -5.842000e+000 1.778000e+000 0.000000e+000
      vertex   -5.842000e+000 5.905500e+000 0.000000e+000
      vertex   -5.842000e+000 1.778000e+000 1.651000e+000
    endloop
  endfacet
  facet normal 1.000000e+000 -0.000000e+000 0.000000e+000
    outer loop
      vertex   -5.842000e+000 1.778000e+000 1.651000e+000
      vertex   -5.842000e+000 5.905500e+000 0.000000e+000
      vertex   -5.842000e+000 5.905500e+000 1.651000e+000
    endloop
  endfacet
  facet normal 1.092739e-016 1.000000e+000 0.000000e+000
    outer loop
      vertex   -1.778000e+000 1.778000e+000 0.000000e+000
      vertex   -5.842000e+000 1.778000e+000 0.000000e+000
      vertex   -1.778000e+000 1.778000e+000 1.651000e+000
    endloop
  endfacet
  facet normal 1.092739e-016 1.000000e+000 -0.000000e+000
    outer loop
      vertex   -1.778000e+000 1.778000e+000 1.651000e+000
      vertex   -5.842000e+000 1.778000e+000 0.000000e+000
      vertex   -5.842000e+000 1.778000e+000 1.651000e+000
    endloop
  endfacet
  facet normal -1.000000e+000 0.000000e+000 0.000000e+000
    outer loop
      vertex   -1.778000e+000 1.155700e+001 0.000000e+000
      vertex   -1.778000e+000 1.778000e+000 0.000000e+000
      vertex   -1.778000e+000 1.155700e+001 1.651000e+000
    endloop
  endfacet
  facet normal -1.000000e+000 -0.000000e+000 0.000000e+000
    outer loop
      vertex   -1.778000e+000 1.155700e+001 1.651000e+000
      vertex   -1.778000e+000 1.778000e+000 0.000000e+000
      vertex   -1.778000e+000 1.778000e+000 1.651000e+000
    endloop
  endfacet
  facet normal 0.000000e+000 -1.000000e+000 0.000000e+000
    outer loop
      vertex   -5.842000e+000 1.155700e+001 0.000000e+000
      vertex   -1.778000e+000 1.155700e+001 0.000000e+000
      vertex   -5.842000e+000 1.155700e+001 1.651000e+000
    endloop
  endfacet
  facet normal 0.000000e+000 -1.000000e+000 0.000000e+000
    outer loop
      vertex   -5.842000e+000 1.155700e+001 1.651000e+000
      vertex   -1.778000e+000 1.155700e+001 0.000000e+000
      vertex   -1.778000e+000 1.155700e+001 1.651000e+000
    endloop
  endfacet
  facet normal 1.000000e+000 0.000000e+000 -0.000000e+000
    outer loop
      vertex   -5.842000e+000 7.429500e+000 0.000000e+000
      vertex   -5.842000e+000 1.155700e+001 0.000000e+000
      vertex   -5.842000e+000 7.429500e+000 1.651000e+000
    endloop
  endfacet
  facet normal 1.000000e+000 -0.000000e+000 0.000000e+000
    outer loop
      vertex   -5.842000e+000 7.429500e+000 1.651000e+000
      vertex   -5.842000e+000 1.155700e+001 0.000000e+000
      vertex   -5.842000e+000 1.155700e+001 1.651000e+000
    endloop
  endfacet
  facet normal 0.000000e+000 -1.000000e+000 0.000000e+000
    outer loop
      vertex   -8.382000e+000 7.429500e+000 0.000000e+000
      vertex   -5.842000e+000 7.429500e+000 0.000000e+000
      vertex   -8.382000e+000 7.429500e+000 1.651000e+000
    endloop
  endfacet
  facet normal 0.000000e+000 -1.000000e+000 0.000000e+000
    outer loop
      vertex   -8.382000e+000 7.429500e+000 1.651000e+000
      vertex   -5.842000e+000 7.429500e+000 0.000000e+000
      vertex   -5.842000e+000 7.429500e+000 1.651000e+000
    endloop
  endfacet
  facet normal 1.000000e+000 0.000000e+000 -0.000000e+000
    outer loop
      vertex   -8.382000e+000 5.905500e+000 0.000000e+000
      vertex   -8.382000e+000 7.429500e+000 0.000000e+000
      vertex   -8.382000e+000 5.905500e+000 1.651000e+000
    endloop
  endfacet
  facet normal 1.000000e+000 -0.000000e+000 0.000000e+000
    outer loop
      vertex   -8.382000e+000 5.905500e+000 1.651000e+000
      vertex   -8.382000e+000 7.429500e+000 0.000000e+000
      vertex   -8.382000e+000 7.429500e+000 1.651000e+000
    endloop
  endfacet
  facet normal 0.000000e+000 1.000000e+000 -0.000000e+000
    outer loop
      vertex   -5.842000e+000 5.905500e+000 0.000000e+000
      vertex   -8.382000e+000 5.905500e+000 0.000000e+000
      vertex   -5.842000e+000 5.905500e+000 1.651000e+000
    endloop
  endfacet
  facet normal 0.000000e+000 1.000000e+000 -0.000000e+000
    outer loop
      vertex   -5.842000e+000 5.905500e+000 1.651000e+000
      vertex   -8.382000e+000 5.905500e+000 0.000000e+000
      vertex   -8.382000e+000 5.905500e+000 1.651000e+000
    endloop
  endfacet
  facet normal -1.000000e+000 0.000000e+000 0.000000e+000
    outer loop
      vertex   -7.620000e+000 1.333500e+001 0.000000e+000
      vertex   -7.620000e+000 9.207500e+000 0.000000e+000
      vertex   -7.620000e+000 1.333500e+001 1.651000e+000
    endloop
  endfacet
  facet normal -1.000000e+000 -0.000000e+000 0.000000e+000
    outer loop
      vertex   -7.620000e+000 1.333500e+001 1.651000e+000
      vertex   -7.620000e+000 9.207500e+000 0.000000e+000
      vertex   -7.620000e+000 9.207500e+000 1.651000e+000
    endloop
  endfacet
  facet normal 0.000000e+000 1.000000e+000 -0.000000e+000
    outer loop
      vertex   0.000000e+000 1.333500e+001 0.000000e+000
      vertex   -7.620000e+000 1.333500e+001 0.000000e+000
      vertex   0.000000e+000 1.333500e+001 1.651000e+000
    endloop
  endfacet
  facet normal 0.000000e+000 1.000000e+000 -0.000000e+000
    outer loop
      vertex   0.000000e+000 1.333500e+001 1.651000e+000
      vertex   -7.620000e+000 1.333500e+001 0.000000e+000
      vertex   -7.620000e+000 1.333500e+001 1.651000e+000
    endloop
  endfacet
  facet normal 1.000000e+000 0.000000e+000 -0.000000e+000
    outer loop
      vertex   0.000000e+000 0.000000e+000 0.000000e+000
      vertex   0.000000e+000 1.333500e+001 0.000000e+000
      vertex   0.000000e+000 0.000000e+000 1.651000e+000
    endloop
  endfacet
  facet normal 1.000000e+000 -0.000000e+000 0.000000e+000
    outer loop
      vertex   0.000000e+000 0.000000e+000 1.651000e+000
      vertex   0.000000e+000 1.333500e+001 0.000000e+000
      vertex   0.000000e+000 1.333500e+001 1.651000e+000
    endloop
  endfacet
  facet normal 0.000000e+000 -1.000000e+000 0.000000e+000
    outer loop
      vertex   -7.620000e+000 0.000000e+000 0.000000e+000
      vertex   0.000000e+000 0.000000e+000 0.000000e+000
      vertex   -7.620000e+000 0.000000e+000 1.651000e+000
    endloop
  endfacet
  facet normal 0.000000e+000 -1.000000e+000 0.000000e+000
    outer loop
      vertex   -7.620000e+000 0.000000e+000 1.651000e+000
      vertex   0.000000e+000 0.000000e+000 0.000000e+000
      vertex   0.000000e+000 0.000000e+000 1.651000e+000
    endloop
  endfacet
  facet normal -1.000000e+000 0.000000e+000 0.000000e+000
    outer loop
      vertex   -7.620000e+000 4.127500e+000 0.000000e+000
      vertex   -7.620000e+000 0.000000e+000 0.000000e+000
      vertex   -7.620000e+000 4.127500e+000 1.651000e+000
    endloop
  endfacet
  facet normal -1.000000e+000 -0.000000e+000 0.000000e+000
    outer loop
      vertex   -7.620000e+000 4.127500e+000 1.651000e+000
      vertex   -7.620000e+000 0.000000e+000 0.000000e+000
      vertex   -7.620000e+000 0.000000e+000 1.651000e+000
    endloop
  endfacet
  facet normal 0.000000e+000 -1.000000e+000 0.000000e+000
    outer loop
      vertex   -1.016000e+001 4.127500e+000 0.000000e+000
      vertex   -7.620000e+000 4.127500e+000 0.000000e+000
      vertex   -1.016000e+001 4.127500e+000 1.651000e+000
    endloop
  endfacet
  facet normal 0.000000e+000 -1.000000e+000 0.000000e+000
    outer loop
      vertex   -1.016000e+001 4.127500e+000 1.651000e+000
      vertex   -7.620000e+000 4.127500e+000 0.000000e+000
      vertex   -7.620000e+000 4.127500e+000 1.651000e+000
    endloop
  endfacet
  facet normal -1.000000e+000 0.000000e+000 0.000000e+000
    outer loop
      vertex   -1.016000e+001 9.207500e+000 0.000000e+000
      vertex   -1.016000e+001 4.127500e+000 0.000000e+000
      vertex   -1.016000e+001 9.207500e+000 1.651000e+000
    endloop
  endfacet
  facet normal -1.000000e+000 -0.000000e+000 0.000000e+000
    outer loop
      vertex   -1.016000e+001 9.207500e+000 1.651000e+000
      vertex   -1.016000e+001 4.127500e+000 0.000000e+000
      vertex   -1.016000e+001 4.127500e+000 1.651000e+000
    endloop
  endfacet
  facet normal 0.000000e+000 1.000000e+000 -0.000000e+000
    outer loop
      vertex   -7.620000e+000 9.207500e+000 0.000000e+000
      vertex   -1.016000e+001 9.207500e+000 0.000000e+000
      vertex   -7.620000e+000 9.207500e+000 1.651000e+000
    endloop
  endfacet
  facet normal 0.000000e+000 1.000000e+000 -0.000000e+000
    outer loop
      vertex   -7.620000e+000 9.207500e+000 1.651000e+000
      vertex   -1.016000e+001 9.207500e+000 0.000000e+000
      vertex   -1.016000e+001 9.207500e+000 1.651000e+000
    endloop
  endfacet
  facet normal 0.000000e+000 -0.000000e+000 1.000000e+000
    outer loop
      vertex   -5.842000e+000 1.778000e+000 1.651000e+000
      vertex   -5.842000e+000 5.905500e+000 1.651000e+000
      vertex   -7.620000e+000 4.127500e+000 1.651000e+000
    endloop
  endfacet
  facet normal 0.000000e+000 -0.000000e+000 1.000000e+000
    outer loop
      vertex   -7.620000e+000 0.000000e+000 1.651000e+000
      vertex   -5.842000e+000 1.778000e+000 1.651000e+000
      vertex   -7.620000e+000 4.127500e+000 1.651000e+000
    endloop
  endfacet
  facet normal 0.000000e+000 -0.000000e+000 1.000000e+000
    outer loop
      vertex   -7.620000e+000 0.000000e+000 1.651000e+000
      vertex   0.000000e+000 0.000000e+000 1.651000e+000
      vertex   -5.842000e+000 1.778000e+000 1.651000e+000
    endloop
  endfacet
  facet normal -0.000000e+000 -0.000000e+000 1.000000e+000
    outer loop
      vertex   -5.842000e+000 1.778000e+000 1.651000e+000
      vertex   0.000000e+000 0.000000e+000 1.651000e+000
      vertex   -1.778000e+000 1.778000e+000 1.651000e+000
    endloop
  endfacet
  facet normal -0.000000e+000 -0.000000e+000 1.000000e+000
    outer loop
      vertex   -1.778000e+000 1.778000e+000 1.651000e+000
      vertex   0.000000e+000 0.000000e+000 1.651000e+000
      vertex   -1.778000e+000 1.155700e+001 1.651000e+000
    endloop
  endfacet
  facet normal -0.000000e+000 0.000000e+000 1.000000e+000
    outer loop
      vertex   -1.778000e+000 1.155700e+001 1.651000e+000
      vertex   0.000000e+000 0.000000e+000 1.651000e+000
      vertex   0.000000e+000 1.333500e+001 1.651000e+000
    endloop
  endfacet
  facet normal -0.000000e+000 0.000000e+000 1.000000e+000
    outer loop
      vertex   -7.620000e+000 1.333500e+001 1.651000e+000
      vertex   -1.778000e+000 1.155700e+001 1.651000e+000
      vertex   0.000000e+000 1.333500e+001 1.651000e+000
    endloop
  endfacet
  facet normal -0.000000e+000 0.000000e+000 1.000000e+000
    outer loop
      vertex   -7.620000e+000 1.333500e+001 1.651000e+000
      vertex   -5.842000e+000 1.155700e+001 1.651000e+000
      vertex   -1.778000e+000 1.155700e+001 1.651000e+000
    endloop
  endfacet
  facet normal -0.000000e+000 0.000000e+000 1.000000e+000
    outer loop
      vertex   -7.620000e+000 1.333500e+001 1.651000e+000
      vertex   -7.620000e+000 9.207500e+000 1.651000e+000
      vertex   -5.842000e+000 1.155700e+001 1.651000e+000
    endloop
  endfacet
  facet normal 0.000000e+000 0.000000e+000 1.000000e+000
    outer loop
      vertex   -5.842000e+000 1.155700e+001 1.651000e+000
      vertex   -7.620000e+000 9.207500e+000 1.651000e+000
      vertex   -5.842000e+000 7.429500e+000 1.651000e+000
    endloop
  endfacet
  facet normal 0.000000e+000 0.000000e+000 1.000000e+000
    outer loop
      vertex   -5.842000e+000 7.429500e+000 1.651000e+000
      vertex   -7.620000e+000 9.207500e+000 1.651000e+000
      vertex   -8.382000e+000 7.429500e+000 1.651000e+000
    endloop
  endfacet
  facet normal 0.000000e+000 -0.000000e+000 1.000000e+000
    outer loop
      vertex   -8.382000e+000 7.429500e+000 1.651000e+000
      vertex   -7.620000e+000 9.207500e+000 1.651000e+000
      vertex   -1.016000e+001 9.207500e+000 1.651000e+000
    endloop
  endfacet
  facet normal 0.000000e+000 -0.000000e+000 1.000000e+000
    outer loop
      vertex   -1.016000e+001 4.127500e+000 1.651000e+000
      vertex   -8.382000e+000 7.429500e+000 1.651000e+000
      vertex   -1.016000e+001 9.207500e+000 1.651000e+000
    endloop
  endfacet
  facet normal 0.000000e+000 0.000000e+000 1.000000e+000
    outer loop
      vertex   -1.016000e+001 4.127500e+000 1.651000e+000
      vertex   -8.382000e+000 5.905500e+000 1.651000e+000
      vertex   -8.382000e+000 7.429500e+000 1.651000e+000
    endloop
  endfacet
  facet normal 0.000000e+000 -0.000000e+000 1.000000e+000
    outer loop
      vertex   -1.016000e+001 4.127500e+000 1.651000e+000
      vertex   -7.620000e+000 4.127500e+000 1.651000e+000
      vertex   -8.382000e+000 5.905500e+000 1.651000e+000
    endloop
  endfacet
  facet normal -0.000000e+000 0.000000e+000 1.000000e+000
    outer loop
      vertex   -8.382000e+000 5.905500e+000 1.651000e+000
      vertex   -7.620000e+000 4.127500e+000 1.651000e+000
      vertex   -5.842000e+000 5.905500e+000 1.651000e+000
    endloop
  endfacet
  facet normal -0.000000e+000 0.000000e+000 -1.000000e+000
    outer loop
      vertex   -5.842000e+000 5.905500e+000 0.000000e+000
      vertex   -7.620000e+000 4.127500e+000 0.000000e+000
      vertex   -8.382000e+000 5.905500e+000 0.000000e+000
    endloop
  endfacet
  facet normal -0.000000e+000 -0.000000e+000 -1.000000e+000
    outer loop
      vertex   -5.842000e+000 5.905500e+000 0.000000e+000
      vertex   -5.842000e+000 1.778000e+000 0.000000e+000
      vertex   -7.620000e+000 4.127500e+000 0.000000e+000
    endloop
  endfacet
  facet normal 0.000000e+000 -0.000000e+000 -1.000000e+000
    outer loop
      vertex   -7.620000e+000 4.127500e+000 0.000000e+000
      vertex   -5.842000e+000 1.778000e+000 0.000000e+000
      vertex   -7.620000e+000 0.000000e+000 0.000000e+000
    endloop
  endfacet
  facet normal 0.000000e+000 0.000000e+000 -1.000000e+000
    outer loop
      vertex   -7.620000e+000 0.000000e+000 0.000000e+000
      vertex   -5.842000e+000 1.778000e+000 0.000000e+000
      vertex   -1.778000e+000 1.778000e+000 0.000000e+000
    endloop
  endfacet
  facet normal 0.000000e+000 0.000000e+000 -1.000000e+000
    outer loop
      vertex   0.000000e+000 0.000000e+000 0.000000e+000
      vertex   -1.778000e+000 1.778000e+000 0.000000e+000
      vertex   -1.778000e+000 1.155700e+001 0.000000e+000
    endloop
  endfacet
  facet normal -0.000000e+000 0.000000e+000 -1.000000e+000
    outer loop
      vertex   0.000000e+000 1.333500e+001 0.000000e+000
      vertex   -1.778000e+000 1.155700e+001 0.000000e+000
      vertex   -5.842000e+000 1.155700e+001 0.000000e+000
    endloop
  endfacet
  facet normal 0.000000e+000 -0.000000e+000 -1.000000e+000
    outer loop
      vertex   -7.620000e+000 1.333500e+001 0.000000e+000
      vertex   -5.842000e+000 1.155700e+001 0.000000e+000
      vertex   -7.620000e+000 9.207500e+000 0.000000e+000
    endloop
  endfacet
  facet normal 0.000000e+000 -0.000000e+000 -1.000000e+000
    outer loop
      vertex   -7.620000e+000 1.333500e+001 0.000000e+000
      vertex   0.000000e+000 1.333500e+001 0.000000e+000
      vertex   -5.842000e+000 1.155700e+001 0.000000e+000
    endloop
  endfacet
  facet normal 0.000000e+000 0.000000e+000 -1.000000e+000
    outer loop
      vertex   -7.620000e+000 0.000000e+000 0.000000e+000
      vertex   -1.778000e+000 1.778000e+000 0.000000e+000
      vertex   0.000000e+000 0.000000e+000 0.000000e+000
    endloop
  endfacet
  facet normal 0.000000e+000 0.000000e+000 -1.000000e+000
    outer loop
      vertex   0.000000e+000 0.000000e+000 0.000000e+000
      vertex   -1.778000e+000 1.155700e+001 0.000000e+000
      vertex   0.000000e+000 1.333500e+001 0.000000e+000
    endloop
  endfacet
  facet normal -0.000000e+000 -0.000000e+000 -1.000000e+000
    outer loop
      vertex   -5.842000e+000 1.155700e+001 0.000000e+000
      vertex   -5.842000e+000 7.429500e+000 0.000000e+000
      vertex   -7.620000e+000 9.207500e+000 0.000000e+000
    endloop
  endfacet
  facet normal -0.000000e+000 -0.000000e+000 -1.000000e+000
    outer loop
      vertex   -7.620000e+000 9.207500e+000 0.000000e+000
      vertex   -5.842000e+000 7.429500e+000 0.000000e+000
      vertex   -8.382000e+000 7.429500e+000 0.000000e+000
    endloop
  endfacet
  facet normal 0.000000e+000 -0.000000e+000 -1.000000e+000
    outer loop
      vertex   -1.016000e+001 9.207500e+000 0.000000e+000
      vertex   -8.382000e+000 7.429500e+000 0.000000e+000
      vertex   -1.016000e+001 4.127500e+000 0.000000e+000
    endloop
  endfacet
  facet normal 0.000000e+000 -0.000000e+000 -1.000000e+000
    outer loop
      vertex   -1.016000e+001 9.207500e+000 0.000000e+000
      vertex   -7.620000e+000 9.207500e+000 0.000000e+000
      vertex   -8.382000e+000 7.429500e+000 0.000000e+000
    endloop
  endfacet
  facet normal 0.000000e+000 -0.000000e+000 -1.000000e+000
    outer loop
      vertex   -8.382000e+000 7.429500e+000 0.000000e+000
      vertex   -8.382000e+000 5.905500e+000 0.000000e+000
      vertex   -1.016000e+001 4.127500e+000 0.000000e+000
    endloop
  endfacet
  facet normal 0.000000e+000 0.000000e+000 -1.000000e+000
    outer loop
      vertex   -1.016000e+001 4.127500e+000 0.000000e+000
      vertex   -8.382000e+000 5.905500e+000 0.000000e+000
      vertex   -7.620000e+000 4.127500e+000 0.000000e+000
    endloop
  endfacet
endsolid
